<svg t="1742217325453" class="icon" viewBox="0 0 1024 1024" version="1.1" xmlns="http://www.w3.org/2000/svg" p-id="13733" width="62" height="62"><path d="M51.2 540.8c9.6 0 19.2-3.2 28.8-9.6 6.4 0 16 3.2 12.8-9.6 6.4-3.2 12.8-6.4 22.4-6.4 0 3.2-9.6 3.2-6.4 6.4 3.2 3.2 6.4 0 9.6 0 9.6-3.2 19.2-3.2 28.8-9.6 6.4 0 12.8-3.2 19.2-6.4 3.2 0 6.4-3.2 6.4-6.4 0 0 3.2 0 3.2 0 16-6.4 32-9.6 48-12.8 0 3.2 0 3.2 3.2 3.2 6.4 0 12.8-3.2 19.2-6.4 9.6-3.2 19.2-3.2 28.8-9.6 6.4 0 12.8-3.2 19.2-3.2 0 0 3.2-3.2 3.2-3.2 19.2-3.2 38.4-3.2 54.4-9.6 112-38.4 227.2-73.6 339.2-112 73.6-25.6 147.2-44.8 217.6-70.4 9.6-3.2 16-6.4 19.2 6.4 0 6.4 6.4 3.2 12.8 3.2 12.8-12.8 0-25.6-3.2-35.2-3.2-9.6-12.8-3.2-22.4-3.2-22.4 6.4-48 16-70.4 22.4-9.6 3.2-19.2 3.2-25.6-6.4-12.8-16-25.6-28.8-41.6-41.6-32-28.8-70.4-54.4-108.8-70.4-35.2-12.8-67.2-22.4-105.6-25.6-60.8-3.2-83.2-3.2-118.4 0-28.8 6.4-57.6 9.6-83.2 32 0 0-3.2 0-6.4 0-6.4 0-12.8 3.2-19.2 6.4-35.2 22.4-64 48-89.6 76.8C217.6 256 201.6 278.4 185.6 304c-6.4 12.8-9.6 19.2-25.6 22.4C160 320 160 316.8 153.6 316.8c-6.4 3.2 3.2 6.4 0 9.6-9.6 16-16 35.2-19.2 51.2 0 6.4-6.4 12.8-6.4 19.2 9.6 38.4 6.4 73.6-9.6 108.8 3.2 9.6-3.2 6.4-6.4 6.4 3.2-6.4 0-6.4-3.2-6.4-12.8 0-22.4 6.4-32 9.6-3.2 0-12.8 3.2-3.2 9.6l0 3.2c-6.4 6.4-16 3.2-22.4 6.4C48 537.6 48 540.8 51.2 540.8L51.2 540.8zM425.6 156.8C425.6 156.8 425.6 156.8 425.6 156.8L425.6 156.8c0-6.4 6.4-3.2 9.6-6.4 28.8-6.4 57.6-6.4 86.4-6.4 76.8 0 144 25.6 204.8 67.2 19.2 12.8 35.2 28.8 51.2 44.8 6.4 6.4 19.2 9.6 19.2 22.4 0 3.2 0 3.2 0 6.4-3.2 3.2-3.2-3.2-6.4-3.2-38.4-44.8-83.2-80-137.6-102.4-57.6-22.4-115.2-35.2-176-25.6-12.8 3.2-22.4 6.4-35.2 3.2C435.2 160 428.8 156.8 425.6 156.8L425.6 156.8 425.6 156.8 425.6 156.8 425.6 156.8c-3.2 6.4-9.6 0-16 3.2C416 153.6 419.2 153.6 425.6 156.8L425.6 156.8zM371.2 172.8c-6.4 9.6-16 9.6-25.6 9.6C352 179.2 361.6 176 371.2 172.8L371.2 172.8zM339.2 188.8C272 233.6 217.6 288 185.6 364.8 188.8 313.6 275.2 214.4 339.2 188.8L339.2 188.8zM172.8 470.4c3.2-51.2 19.2-99.2 44.8-140.8 44.8-76.8 105.6-128 188.8-156.8 28.8-9.6 57.6-16 86.4-16 76.8-6.4 147.2 12.8 214.4 54.4 32 19.2 54.4 44.8 80 73.6-3.2 0-6.4 0-6.4 3.2-19.2 9.6-35.2 12.8-54.4-9.6-32-35.2-76.8-57.6-121.6-73.6 0 12.8 0 9.6 9.6 16C662.4 236.8 704 262.4 736 300.8c-64 22.4-128 41.6-188.8 64-102.4 32-204.8 67.2-307.2 99.2C220.8 470.4 224 460.8 224 451.2c19.2-92.8 67.2-166.4 153.6-211.2 48-25.6 102.4-35.2 156.8-35.2L544 204.8c3.2 0 6.4 0 6.4-3.2 0-6.4-3.2-6.4-6.4-6.4-38.4-3.2-76.8 0-112 9.6C326.4 240 256 310.4 220.8 416c-6.4 16-6.4 35.2-9.6 51.2 0 6.4-28.8 19.2-35.2 16C172.8 480 172.8 476.8 172.8 470.4L172.8 470.4zM166.4 742.4C172.8 736 185.6 739.2 192 729.6c0-6.4 0-9.6-6.4-6.4-12.8 6.4-28.8 12.8-44.8 16-9.6 3.2-6.4 6.4-3.2 9.6-3.2 6.4-3.2 3.2-6.4 0 0-16-9.6 3.2-12.8-3.2-6.4 6.4-9.6 3.2-12.8-3.2C86.4 675.2 64 608 41.6 544c0-3.2 0-6.4-3.2-3.2-3.2 0-6.4-3.2-6.4-3.2-3.2 0 0 3.2 0 6.4 6.4 19.2 6.4 41.6 12.8 60.8 9.6 57.6 35.2 108.8 51.2 160 0 3.2 0 9.6 6.4 6.4 3.2 0 9.6 0 9.6-9.6 0-6.4 3.2-6.4 6.4 0 16 6.4 25.6-6.4 35.2-9.6 6.4 0 12.8 0 16-6.4C169.6 748.8 166.4 745.6 166.4 742.4L166.4 742.4zM240 220.8c3.2 0 6.4 0 6.4-3.2 0-3.2 0-3.2-3.2-3.2-3.2 0-6.4 0-6.4 3.2C236.8 220.8 236.8 224 240 220.8L240 220.8zM844.8 716.8c6.4-3.2 9.6-6.4 9.6-16C848 704 844.8 710.4 844.8 716.8L844.8 716.8zM982.4 406.4c-12.8-35.2-25.6-73.6-35.2-108.8-3.2-6.4-6.4-16-12.8-19.2-9.6 0-9.6 3.2-9.6 9.6 0 6.4 3.2 9.6 3.2 16 16 48 32 92.8 48 140.8 0 3.2 6.4 12.8 0 16-6.4 3.2-12.8 9.6-19.2 12.8 0-3.2 0-3.2-3.2-3.2-3.2 0-3.2 3.2-3.2 3.2 0 0 0 0-3.2 0-6.4 0-12.8 0-19.2 3.2-35.2 12.8-70.4 25.6-105.6 35.2-38.4 12.8-76.8 25.6-115.2 38.4-121.6 38.4-243.2 80-368 121.6-9.6 3.2-22.4 3.2-19.2 16 3.2 12.8 16 3.2 22.4 0 99.2-28.8 195.2-64 294.4-96 51.2-16 99.2-32 147.2-48 9.6-3.2 16-3.2 12.8 9.6-12.8 70.4-44.8 131.2-102.4 172.8-99.2 76.8-208 86.4-323.2 32-3.2-3.2-9.6-6.4-16-3.2l0 0 0 0c0 6.4 3.2 12.8 9.6 16 38.4 19.2 76.8 32 118.4 35.2 51.2 3.2 99.2-3.2 144-22.4 54.4-25.6 99.2-60.8 131.2-108.8 12.8-22.4 22.4-41.6 35.2-64 6.4-19.2 12.8-38.4 16-57.6 3.2-19.2 12.8-25.6 32-25.6 3.2 0 6.4-3.2 6.4-6.4 0 48-9.6 96-35.2 137.6 0-6.4 0-9.6-3.2-12.8 0-9.6 6.4-19.2 0-25.6 0-6.4-6.4-3.2-9.6-3.2 0 3.2-3.2 9.6 3.2 9.6l0 0c0 3.2 0 9.6-3.2 9.6-6.4 9.6 0 9.6 6.4 12.8 3.2 6.4-9.6 16 6.4 16l0 0 0 0c-3.2 3.2-3.2 16-12.8 6.4-3.2 6.4-9.6 16-9.6 25.6l0 0 0 0c-6.4 0-6.4-6.4-19.2-9.6 12.8 12.8-3.2 22.4 6.4 32-12.8 9.6-25.6 22.4-38.4 28.8-9.6 3.2-6.4 9.6-6.4 12.8 0 9.6 0 6.4-9.6 9.6-16 3.2-35.2-6.4-51.2 9.6-12.8 12.8-28.8 12.8-41.6 16-9.6 3.2-19.2 3.2-22.4 12.8-3.2 6.4-9.6 12.8-22.4 9.6-3.2 0-6.4 0-9.6 0 0 0-3.2 0-3.2 0-6.4 0-9.6 3.2-9.6 12.8L563.2 832c0 6.4-3.2 9.6-9.6 9.6-57.6 9.6-112 3.2-163.2-16-3.2-3.2-9.6-6.4-12.8 3.2 12.8 6.4 28.8 9.6 41.6 16-16 0-32-3.2-48-12.8-3.2 0-9.6 3.2-9.6-3.2 0 0 0-3.2 0-3.2 3.2-9.6 3.2-9.6-6.4-12.8-32-19.2-67.2-35.2-89.6-67.2-6.4-12.8-12.8-3.2-16 3.2-12.8-3.2-16-16-22.4-22.4 9.6-3.2 9.6 9.6 19.2 6.4 3.2-3.2 0-6.4 0-9.6-3.2 0-6.4-3.2-3.2-6.4 6.4-9.6 35.2-9.6 44.8-3.2l0 0c12.8 22.4 38.4 35.2 57.6 48 6.4 6.4 6.4-3.2 9.6-6.4l0 0 0 0 0 0 0 0c-12.8-12.8-28.8-22.4-41.6-32-6.4-6.4-9.6-16-19.2-16l0 0c0-6.4 12.8-12.8 6.4-19.2-6.4-9.6-16 0-22.4 0-22.4 6.4-41.6 12.8-64 19.2-6.4 3.2-16 3.2-19.2 12.8 0 0 3.2 3.2 3.2 3.2 0 0 0 0 0 0 0 0-3.2 3.2-3.2 3.2C192 729.6 192 732.8 192 736l0 0 0 0c0 3.2-6.4 3.2-6.4 9.6 9.6-3.2 22.4-6.4 32-12.8-6.4 16 12.8 19.2 12.8 32-3.2 6.4 3.2 12.8 6.4 16 3.2 3.2 3.2 9.6 6.4 9.6 6.4 6.4 6.4 0 6.4-3.2l0 0c6.4 0 3.2 9.6 9.6 9.6-3.2 12.8 0 16 12.8 12.8 6.4-3.2 0-6.4 3.2-12.8 6.4 6.4 16 6.4 19.2 16 0 6.4-9.6 3.2-12.8 6.4C291.2 828.8 294.4 832 300.8 832c12.8 3.2 28.8 6.4 44.8 9.6 35.2 12.8 73.6 25.6 112 35.2l0 6.4 48 0 19.2 0c0-3.2 6.4-3.2 9.6-3.2 28.8-3.2 57.6-6.4 86.4-16 22.4-6.4 41.6-16 64-22.4 19.2-3.2 35.2-12.8 48-25.6 9.6-9.6 22.4-22.4 35.2-25.6 16-6.4 22.4-25.6 41.6-32 16-6.4 12.8-25.6 25.6-38.4 6.4-6.4 9.6-22.4 16-22.4 16-3.2 12.8-16 16-25.6 3.2-12.8 6.4-25.6 16-35.2 9.6-12.8 6.4-25.6 12.8-41.6 3.2-12.8 16-25.6 0-35.2 0 0 0 0 0 0 0-16 3.2-32 3.2-48 0-9.6 6.4-12.8 12.8-12.8 28.8-9.6 57.6-19.2 86.4-28.8l0-12.8C992 438.4 985.6 422.4 982.4 406.4L982.4 406.4zM268.8 768 268.8 768C272 768 272 768 268.8 768 272 771.2 272 771.2 268.8 768 268.8 771.2 268.8 768 268.8 768L268.8 768zM339.2 819.2C339.2 819.2 342.4 819.2 339.2 819.2 342.4 819.2 342.4 819.2 339.2 819.2L339.2 819.2zM652.8 800c6.4-3.2 12.8-3.2 16-6.4C665.6 803.2 662.4 800 652.8 800L652.8 800zM748.8 761.6c6.4-9.6 12.8-16 25.6-22.4C761.6 761.6 761.6 761.6 748.8 761.6L748.8 761.6zM803.2 707.2c0-6.4 3.2-9.6 9.6-9.6C809.6 704 806.4 707.2 803.2 707.2L803.2 707.2zM800 662.4c6.4-3.2 3.2-9.6 3.2-16-6.4 6.4-9.6 9.6-6.4 12.8C796.8 662.4 800 662.4 800 662.4L800 662.4zM720 758.4c3.2 0 3.2-3.2 6.4-6.4-3.2 0-3.2-3.2-3.2-3.2-3.2 0-3.2 3.2-3.2 6.4C713.6 758.4 716.8 761.6 720 758.4L720 758.4zM534.4 828.8c3.2 0 3.2 0 3.2-3.2 0 0-3.2-3.2-3.2-3.2-3.2 0-3.2 0-6.4 3.2C528 828.8 531.2 828.8 534.4 828.8L534.4 828.8zM259.2 716.8c-3.2 0-6.4 3.2-9.6 6.4C252.8 723.2 259.2 723.2 259.2 716.8 259.2 716.8 259.2 716.8 259.2 716.8L259.2 716.8zM249.6 723.2 249.6 723.2C249.6 723.2 249.6 723.2 249.6 723.2 249.6 723.2 249.6 723.2 249.6 723.2L249.6 723.2zM828.8 560C828.8 560 825.6 560 828.8 560c-9.6 3.2-6.4 12.8-12.8 16 0 0 0 3.2 3.2 6.4C822.4 576 828.8 569.6 828.8 560L828.8 560zM422.4 236.8l9.6 9.6c0 0 0 0 0 0L448 243.2c0 0 0 0 0 0l-6.4 12.8 0 0 6.4 12.8c0 0 0 3.2 0 0l-12.8-3.2c0 0 0 0 0 0l-9.6 9.6c0 0-3.2 0-3.2 0l-3.2-12.8c0 0 0 0 0 0l-12.8-6.4c0 0 0 0 0-3.2l12.8-6.4c0 0 0 0 0 0L422.4 236.8C422.4 236.8 422.4 236.8 422.4 236.8L422.4 236.8zM489.6 233.6l3.2 9.6c0 0 0 0 0 0l9.6 3.2c0 0 0 0 0 0l-6.4 6.4c0 0 0 0 0 0l0 9.6c0 0 0 0 0 0L486.4 256c0 0 0 0 0 0l-9.6 3.2c0 0 0 0 0 0l3.2-9.6 0 0-6.4-6.4c0 0 0 0 0 0l9.6 0c0 0 0 0 0 0L489.6 233.6C489.6 233.6 489.6 233.6 489.6 233.6L489.6 233.6zM390.4 272l0 9.6c0 0 0 0 0 0L400 288c0 0 0 0 0 0l-9.6 3.2c0 0 0 0 0 0l0 9.6c0 0 0 0 0 0L384 297.6c0 0 0 0 0 0l-9.6 0c0 0 0 0 0 0L377.6 288l0 0-3.2-9.6c0 0 0 0 0 0l9.6 3.2c0 0 0 0 0 0L390.4 272C390.4 272 390.4 272 390.4 272L390.4 272zM617.6 752 608 742.4c0 0 0 0 0 0l-12.8 3.2c0 0 0 0 0 0l6.4-12.8 0 0-6.4-12.8c0 0 0-3.2 0 0l12.8 3.2c0 0 0 0 0 0l9.6-9.6c0 0 3.2 0 3.2 0l3.2 12.8c0 0 0 0 0 0l12.8 6.4c0 0 0 0 0 3.2L620.8 736c0 0 0 0 0 0L617.6 752C617.6 752 617.6 752 617.6 752L617.6 752zM550.4 755.2l-3.2-9.6c0 0 0 0 0 0l-9.6-3.2c0 0 0 0 0 0l6.4-6.4c0 0 0 0 0 0l0-9.6c0 0 0 0 0 0l6.4 6.4c0 0 0 0 0 0l9.6-3.2c0 0 0 0 0 0l-3.2 9.6 0 0 6.4 6.4c0 0 0 0 0 0l-9.6 0c0 0 0 0 0 0L550.4 755.2C550.4 755.2 550.4 755.2 550.4 755.2L550.4 755.2zM649.6 713.6l0-9.6c0 0 0 0 0 0L640 700.8c0 0 0 0 0 0l9.6-3.2c0 0 0 0 0 0l0-9.6c0 0 0 0 0 0l6.4 6.4c0 0 0 0 0 0l9.6 0c0 0 0 0 0 0l-3.2 9.6 0 0 3.2 9.6c0 0 0 0 0 0l-9.6-3.2c0 0 0 0 0 0L649.6 713.6C652.8 713.6 649.6 713.6 649.6 713.6L649.6 713.6z" p-id="13734" fill="#2c2c2c"></path><path d="M182.4 518.4 188.8 531.2 166.4 537.6 172.8 553.6 192 547.2 195.2 556.8 211.2 553.6 208 540.8 230.4 534.4 233.6 547.2 249.6 544 246.4 531.2 262.4 524.8 259.2 508.8 240 515.2 236.8 502.4 220.8 505.6 224 518.4 204.8 524.8 198.4 512Z" fill="#2c2c2c" p-id="13735"></path><path d="M288 640c-3.2-12.8-12.8-41.6-25.6-89.6l-51.2 16c0-3.2 0-3.2 0-6.4l-16 3.2c0 19.2-3.2 32-9.6 44.8l16 9.6c0 0 0-3.2 0-3.2l12.8 41.6L262.4 640l-16-51.2-38.4 12.8c0-6.4 3.2-9.6 3.2-16l41.6-12.8c12.8 38.4 19.2 60.8 19.2 67.2 3.2 9.6 0 16-6.4 16-6.4 3.2-12.8 3.2-19.2 6.4L256 672c9.6-3.2 12.8-3.2 16-3.2C284.8 662.4 291.2 652.8 288 640zM233.6 604.8l9.6 25.6-16 6.4-9.6-25.6L233.6 604.8z" fill="#2c2c2c" p-id="13736"></path><path d="M332.8 595.2c3.2-22.4 0-48-9.6-76.8l9.6-3.2-6.4-16L288 512c0-6.4-3.2-16-3.2-25.6l-16 3.2c6.4 32 6.4 57.6 3.2 80l12.8 9.6C284.8 576 288 569.6 288 563.2c9.6 16 19.2 25.6 28.8 38.4-3.2 16-9.6 32-19.2 44.8l12.8 12.8c9.6-12.8 16-28.8 19.2-44.8 12.8 9.6 25.6 19.2 38.4 22.4l6.4-16C358.4 614.4 345.6 608 332.8 595.2zM288 537.6c0-3.2 0-6.4 0-9.6l22.4-6.4c6.4 19.2 9.6 38.4 9.6 57.6C307.2 569.6 297.6 553.6 288 537.6z" fill="#2c2c2c" p-id="13737"></path><path d="M428.8 435.2 435.2 448 393.6 460.8 396.8 473.6 438.4 460.8 441.6 467.2 406.4 480 412.8 492.8 444.8 483.2 448 489.6 403.2 505.6 406.4 518.4 515.2 483.2 512 470.4 464 486.4 460.8 476.8 496 464 492.8 451.2 457.6 464 454.4 454.4 496 441.6 492.8 428.8 451.2 441.6 444.8 432Z" fill="#2c2c2c" p-id="13738"></path><path d="M528 563.2l-22.4-67.2-83.2 28.8L448 608l16-6.4L457.6 576l51.2-16 3.2 6.4c0 3.2 0 6.4-3.2 6.4L492.8 576l9.6 12.8 16-3.2C528 582.4 531.2 576 528 563.2zM441.6 531.2l51.2-16 3.2 9.6-51.2 16L441.6 531.2zM451.2 563.2 448 553.6l51.2-16 3.2 9.6L451.2 563.2z" fill="#2c2c2c" p-id="13739"></path><path d="M361.6 460.8 352 476.8c16 6.4 28.8 9.6 38.4 16l6.4-16C387.2 473.6 374.4 467.2 361.6 460.8L361.6 460.8z" fill="#2c2c2c" p-id="13740"></path><path d="M348.8 521.6l6.4 16 22.4-6.4 22.4 64c0 3.2 0 6.4 0 9.6l12.8 12.8c9.6-12.8 16-25.6 22.4-38.4l-9.6-16c-3.2 6.4-6.4 12.8-9.6 19.2l-22.4-73.6L348.8 521.6z" fill="#2c2c2c" p-id="13741"></path><path d="M627.2 489.6l-9.6 3.2-22.4-70.4 9.6-3.2-6.4-16-9.6 3.2-6.4-19.2-16 6.4 6.4 19.2-28.8 9.6-6.4-19.2-16 6.4 6.4 19.2-9.6 3.2 6.4 16 9.6-3.2 22.4 70.4L544 515.2l6.4 16 83.2-28.8L627.2 489.6zM550.4 451.2l-3.2-12.8 28.8-9.6 3.2 12.8L550.4 451.2zM556.8 464l28.8-9.6 3.2 12.8-28.8 9.6L556.8 464zM569.6 505.6l-3.2-12.8 28.8-9.6 3.2 12.8L569.6 505.6z" fill="#2c2c2c" p-id="13742"></path><path d="M569.6 528c-3.2 12.8-6.4 25.6-12.8 35.2l16 6.4c6.4-12.8 9.6-25.6 12.8-38.4L569.6 528z" fill="#2c2c2c" p-id="13743"></path><path d="M707.2 505.6l-44.8-137.6-60.8 19.2 28.8 83.2c6.4 22.4 9.6 44.8 3.2 60.8-6.4-6.4-16-12.8-25.6-19.2l-9.6 12.8c9.6 6.4 19.2 16 25.6 22.4l6.4-9.6 16 6.4c6.4-19.2 6.4-41.6 3.2-64l28.8-9.6 9.6 32c0 3.2 0 6.4-3.2 9.6-6.4 3.2-12.8 3.2-19.2 6.4l9.6 16 19.2-6.4C707.2 524.8 713.6 515.2 707.2 505.6zM633.6 425.6l-9.6-25.6 28.8-9.6 9.6 25.6L633.6 425.6zM646.4 467.2l-9.6-25.6 28.8-9.6 9.6 25.6L646.4 467.2z" fill="#2c2c2c" p-id="13744"></path><path d="M716.8 342.4c-3.2 19.2-9.6 38.4-22.4 54.4l9.6 16c16-22.4 25.6-44.8 28.8-67.2L716.8 342.4z" fill="#2c2c2c" p-id="13745"></path><path d="M736 380.8c-3.2 22.4-9.6 44.8-22.4 64l9.6 12.8c6.4-6.4 9.6-16 12.8-22.4l22.4 70.4 16-6.4-28.8-89.6c3.2-9.6 6.4-19.2 6.4-32L736 380.8z" fill="#2c2c2c" p-id="13746"></path><path d="M780.8 320 787.2 339.2 752 352 755.2 368 793.6 355.2 800 371.2 755.2 387.2 758.4 403.2 864 368 860.8 352 816 368 809.6 348.8 848 336 841.6 323.2 803.2 332.8 796.8 316.8Z" fill="#2c2c2c" p-id="13747"></path><path d="M764.8 419.2l6.4 16 67.2-22.4 12.8 38.4c3.2 6.4 0 9.6-6.4 12.8-6.4 3.2-16 3.2-22.4 6.4l9.6 16 25.6-9.6c12.8-3.2 16-12.8 12.8-25.6l-12.8-41.6 19.2-6.4-6.4-16-19.2 6.4-3.2-12.8-16 6.4 3.2 12.8L764.8 419.2z" fill="#2c2c2c" p-id="13748"></path><path d="M796.8 432l-9.6 12.8c12.8 6.4 22.4 12.8 32 19.2l9.6-12.8C819.2 444.8 809.6 438.4 796.8 432L796.8 432z" fill="#2c2c2c" p-id="13749"></path></svg>